Coordinates
version=1
nRows=17
nColumns=36
inDegrees=yes

Units are S.I. units (second, meters, Newtons, ...)
If the header above contains a line with 'inDegrees', this indicates whether rotational values are in degrees (yes) or radians (no).

endheader
time	pelvis_tilt	pelvis_list	pelvis_rotation	pelvis_tx	pelvis_ty	pelvis_tz	hip_flexion_r	hip_adduction_r	hip_rotation_r	knee_angle_r	knee_angle_r_beta	ankle_angle_r	subtalar_angle_r	mtp_angle_r	hip_flexion_l	hip_adduction_l	hip_rotation_l	knee_angle_l	knee_angle_l_beta	ankle_angle_l	subtalar_angle_l	mtp_angle_l	lumbar_extension	lumbar_bending	lumbar_rotation	arm_flex_r	arm_add_r	arm_rot_r	elbow_flex_r	pro_sup_r	arm_flex_l	arm_add_l	arm_rot_l	elbow_flex_l	pro_sup_l
      1.38000000	    -27.09063267	     -3.42069188	    -11.99248345	     -0.38822700	      0.70526108	     -0.50067420	    101.03353186	      3.03579651	     -3.04536721	    103.70727355	      1.81003338	     24.44814958	     -4.69373097	     -7.15970887	     99.87741012	    -20.69810575	     24.11894458	    107.10866619	      1.86939888	     20.18012368	    -18.63127845	     -7.15970887	    -41.43549419	    -10.12301547	      8.71078520	     93.15425289	    -32.27346592	     34.32389782	     86.66959432	    111.53759061	     84.46010346	    -26.24522565	     26.50522405	     99.30748823	    109.97550169
      1.39000000	    -27.46611250	     -3.45902149	    -12.17145016	     -0.38684755	      0.69984864	     -0.50073535	    101.88021286	      3.30146889	     -2.98985369	    104.42913011	      1.82263216	     24.50340509	     -4.89924620	     -7.16359356	    100.67079972	    -20.44434272	     24.53828456	    107.93700778	      1.88385617	     20.32351029	    -19.44422315	     -7.16359356	    -42.08787901	    -10.09983622	      8.66278139	     97.05440029	    -31.19799074	     35.85509936	     85.88822696	    111.55227493	     86.76424228	    -25.70423213	     26.97492140	     99.06864530	    109.99516759
      1.40000000	    -27.76874105	     -3.55414652	    -12.37293065	     -0.38537166	      0.69517634	     -0.50063359	    102.55473035	      3.65223198	     -2.95752300	    105.05552038	      1.83356473	     24.55702112	     -5.08057879	     -7.16790857	    101.30872461	    -20.24037316	     25.01333595	    108.66559070	      1.89657234	     20.35590300	    -20.22429111	     -7.16790857	    -42.73262375	    -10.06393763	      8.70391698	    100.61794495	    -30.11053666	     37.20012750	     85.19876079	    111.56814151	     88.78821662	    -25.07869496	     27.28353595	     98.83664027	    110.03843534
      1.41000000	    -28.05636207	     -3.62717628	    -12.62176977	     -0.38379860	      0.69121887	     -0.50043859	    103.12933546	      4.01108446	     -2.96388017	    105.56542566	      1.84246425	     24.64368755	     -5.22212918	     -7.17122174	    101.79846304	    -20.10597630	     25.48222392	    109.28206467	      1.90733184	     20.45638447	    -20.77259202	     -7.17122174	    -43.26554869	    -10.09004300	      8.87478450	    103.64011356	    -29.00566371	     38.11283792	     84.56766767	    111.55146749	     90.55464561	    -24.30631541	     27.53864833	     98.53806875	    110.08601643
      1.42000000	    -28.22116066	     -3.65914740	    -12.79515734	     -0.38201694	      0.68800845	     -0.50053284	    103.51980006	      4.23499060	     -2.92653816	    106.05341764	      1.85098132	     24.77294200	     -5.34961089	     -7.17524598	    102.05155462	    -19.93044899	     25.85969438	    109.82502175	      1.91680823	     20.49102476	    -21.18191578	     -7.17524598	    -43.85641189	    -10.07206800	      8.99234768	    106.50298279	    -27.95852131	     39.24597184	     83.95181023	    111.53939698	     92.02547823	    -23.54574760	     27.71768175	     98.25587451	    110.13134328
      1.43000000	    -28.43036098	     -3.62641504	    -12.93583926	     -0.38017204	      0.68549625	     -0.50092540	    103.88035265	      4.34854960	     -2.89679376	    106.43360441	      1.85761683	     24.93782572	     -5.43719985	     -7.17895885	    102.23989671	    -19.73305804	     26.13119023	    110.24441460	      1.92412802	     20.59364916	    -21.50114367	     -7.17895885	    -44.29736190	    -10.05544614	      9.07751145	    108.88900043	    -26.87746070	     40.11008183	     83.40655383	    111.52811469	     93.18314711	    -22.72619810	     27.83659617	     98.01932718	    110.11805678
      1.44000000	    -28.62401773	     -3.61129170	    -13.10984149	     -0.37820905	      0.68364546	     -0.50126284	    104.13844338	      4.44660628	     -2.94638620	    106.72778761	      1.86275130	     25.10994882	     -5.48489158	     -7.18260922	    102.44113105	    -19.71336903	     26.30668178	    110.60843202	      1.93048132	     20.70468865	    -21.72553473	     -7.18260922	    -44.61624165	    -10.03814789	      9.20228680	    110.84681892	    -25.78648465	     40.76960460	     82.95248254	    111.49579947	     94.00598768	    -21.95722601	     27.87913612	     97.87566578	    110.07086576
      1.45000000	    -28.79832316	     -3.62447264	    -13.30499045	     -0.37615690	      0.68238631	     -0.50140286	    104.30758734	      4.58295420	     -3.00154778	    106.94673451	      1.86657264	     25.28333495	     -5.47005136	     -7.18595291	    102.61327527	    -19.83509665	     26.39417559	    110.89918809	      1.93555597	     20.84552895	    -21.92069701	     -7.18595291	    -44.79333764	    -10.03388385	      9.37869063	    112.29813985	    -24.69588614	     41.06737838	     82.59658857	    111.42005449	     94.56809074	    -21.24936936	     27.90266948	     97.79069101	    110.02846801
      1.46000000	    -29.01460578	     -3.58962012	    -13.42847289	     -0.37397172	      0.68171605	     -0.50159272	    104.45992919	      4.64973245	     -2.98861259	    107.09508882	      1.86916191	     25.36196344	     -5.44995470	     -7.18696359	    102.73144219	    -19.87605216	     26.38612580	    111.10141866	      1.93908556	     20.95245844	    -22.06462770	     -7.18696359	    -44.80290492	    -10.04766625	      9.50150468	    113.20220908	    -23.72468403	     40.97131411	     82.58588709	    111.38384290	     94.90446122	    -20.56500894	     28.03325426	     97.78503163	    110.02294631
      1.47000000	    -29.14567542	     -3.57168661	    -13.56180191	     -0.37175998	      0.68182867	     -0.50195396	    104.46819121	      4.69047588	     -2.96382048	    107.16647051	      1.87040776	     25.42193553	     -5.35446062	     -7.18814609	    102.67948941	    -19.91048854	     26.37229440	    111.23380794	      1.94139619	     21.10063826	    -22.29880215	     -7.18814609	    -44.80292319	    -10.02692424	      9.67120788	    113.92721849	    -22.74960642	     40.88924215	     82.39398767	    111.33175827	     94.99642247	    -19.92083537	     28.14499995	     97.72632904	    110.00755512
      1.48000000	    -29.13496570	     -3.63634306	    -13.68222664	     -0.36936648	      0.68283706	     -0.50241279	    104.24659037	      4.75327395	     -2.94977068	    107.16667845	      1.87041139	     25.45791858	     -5.07585916	     -7.19056589	    102.47329345	    -20.03552020	     26.30102423	    111.28911605	      1.94236150	     21.20930106	    -22.60782784	     -7.19056589	    -44.80653939	     -9.89002073	      9.82688167	    114.27010338	    -21.67978263	     40.86021425	     82.03693852	    111.24027929	     94.75848492	    -19.32136923	     28.00020569	     97.73451105	    109.97116207
      1.49000000	    -29.21733543	     -3.64127187	    -13.72101452	     -0.36700106	      0.68436674	     -0.50292224	    104.08776399	      4.74452981	     -2.91365346	    107.10299168	      1.86929984	     25.45286891	     -5.04603996	     -7.19092123	    102.31166185	    -20.11016947	     26.14956477	    111.25541342	      1.94177327	     21.19443415	    -22.61481473	     -7.19092123	    -44.68030700	     -9.79287096	      9.92849347	    114.40916661	    -20.99441999	     40.91433487	     82.24628120	    111.24338344	     94.55178048	    -18.86538227	     28.22888401	     97.83042256	    109.99122301
      1.50000000	    -29.18438825	     -3.66737659	    -13.85316652	     -0.36447805	      0.68683686	     -0.50342275	    103.71941750	      4.85483985	     -2.87444009	    106.91770222	      1.86606593	     25.37660160	     -4.85671079	     -7.19392324	    101.93823312	    -20.35528525	     25.90300116	    111.12213269	      1.93944709	     21.23579045	    -22.89482263	     -7.19392324	    -44.55144517	     -9.64918540	     10.08473932	    114.18528681	    -20.03767965	     40.52883139	     82.24277421	    111.12086215	     93.78784731	    -18.42608747	     27.80605860	     98.08575524	    109.94494390
      1.51000000	    -29.20590010	     -3.68985819	    -13.84929017	     -0.36194519	      0.68989589	     -0.50418208	    103.33819673	      4.82544633	     -2.79551422	    106.67551053	      1.86183889	     25.31523983	     -4.80133570	     -7.19472298	    101.53320215	    -20.46329296	     25.59149966	    110.87896527	      1.93520302	     21.22761706	    -22.93811457	     -7.19472298	    -44.31504433	     -9.45088522	     10.22214700	    113.88375634	    -19.50068004	     40.58028575	     82.50954771	    111.11224213	     93.20165995	    -18.14655903	     27.99859860	     98.21850108	    109.96046863
      1.52000000	    -29.21690643	     -3.63539720	    -13.80368306	     -0.35931027	      0.69349917	     -0.50499791	    102.90992121	      4.79682076	     -2.59986536	    106.39457665	      1.85693567	     25.19009045	     -4.62425777	     -7.19732030	    101.00761075	    -20.56294496	     25.09660741	    110.54255100	      1.92933148	     21.32266752	    -23.24508337	     -7.19732030	    -43.98988658	     -9.29391580	     10.15903308	    113.10654324	    -18.85835599	     40.08670541	     83.07857572	    111.02563852	     92.24856983	    -17.81153441	     27.64460132	     98.60119187	    109.94776615
      1.53000000	    -29.19602016	     -3.62549022	    -13.68491469	     -0.35670303	      0.69784999	     -0.50576665	    102.33055255	      4.74379343	     -2.43521663	    105.98926875	      1.84986171	     25.16857695	     -4.59043573	     -7.19836605	    100.31114327	    -20.49850871	     24.72636289	    110.07432112	      1.92115933	     21.30485262	    -23.29443925	     -7.19836605	    -43.62654964	     -9.08226273	     10.15718297	    112.38842482	    -18.57820319	     40.08571594	     83.54870036	    111.01640463	     91.40196406	    -17.70109934	     27.80197035	     98.80850312	    109.96935438
      1.54000000	    -29.21724759	     -3.37446991	    -13.48150666	     -0.35401797	      0.70274825	     -0.50664658	    101.79608085	      4.67754122	     -1.99488811	    105.53540805	      1.84194035	     25.19344765	     -4.61159773	     -7.20141119	     99.39316888	    -20.22995421	     24.12962733	    109.46719529	      1.91056298	     21.33658920	    -23.67486505	     -7.20141119	    -43.17344780	     -9.05849903	      9.84619183	    111.18070895	    -18.27712585	     39.34799428	     84.60919134	    110.94776491	     90.41803984	    -17.52553390	     27.60795158	     99.31028553	    109.95911487
